<?xml version="1.0" encoding="iso-8859-1"?>
<!-- Generator: Adobe Illustrator 19.0.0, SVG Export Plug-In . SVG Version: 6.00 Build 0)  -->
<svg fill='#f00' version="1.1" id="Layer_1" xmlns="http://www.w3.org/2000/svg" xmlns:xlink="http://www.w3.org/1999/xlink" x="0px" y="0px"
	 viewBox="0 0 472.615 472.615" style="enable-background:new 0 0 472.615 472.615;" xml:space="preserve">
<g>
	<g>
		<path d="M446.112,303.959c-35.338-35.337-92.631-35.337-127.968,0c-35.337,35.336-35.337,92.63,0,127.969
			c35.338,35.337,92.631,35.337,127.968,0C481.449,396.589,481.449,339.295,446.112,303.959z M428.329,400.218l-13.923,13.923
			l-32.274-32.274l-32.274,32.274l-13.924-13.923l32.275-32.274l-32.275-32.274l13.924-13.923l32.274,32.275l32.274-32.275
			l13.923,13.923l-32.274,32.274L428.329,400.218z"/>
	</g>
</g>
<g>
	<g>
		<circle cx="207.852" cy="112.292" r="98.107"/>
	</g>
</g>
<g>
	<g>
		<path d="M363.013,259.507c-11.391-12.788-24.225-24.264-38.43-33.92c-1.547-1.051-4.659-3.072-4.659-3.072
			c-25.079,34.819-65.966,57.528-112.061,57.528c-46.099,0-86.99-22.716-112.068-57.541c0,0-2.616,1.712-3.916,2.587
			C36.455,262.423,0,325.76,0,397.611v21.795h284.714c-21.944-41.609-15.448-94.414,19.509-129.371
			C320.448,273.812,340.864,263.363,363.013,259.507z"/>
	</g>
</g>
<g>
</g>
<g>
</g>
<g>
</g>
<g>
</g>
<g>
</g>
<g>
</g>
<g>
</g>
<g>
</g>
<g>
</g>
<g>
</g>
<g>
</g>
<g>
</g>
<g>
</g>
<g>
</g>
<g>
</g>
</svg>
